<svg xmlns="http://www.w3.org/2000/svg" width="1240" height="1240"><path d="M0 620.001v620.001l620.25-.251 620.25-.251.251-619.75.251-619.75H0v620.001m.497.499c0 341 .114 480.649.253 310.332s.139-449.317 0-620S.497 279.5.497 620.5M589 137.047c-80.034 6.896-153.652 36.592-213.602 86.165-13.828 11.434-40.282 38.18-50.73 51.288-26.199 32.871-45.729 68.018-58.967 106.119-7.713 22.2-14.983 54.254-16.36 72.131l-.636 8.25h-55.246c-51.566 0-55.289.116-55.913 1.74-1.413 3.684-1.825 43.027-.619 59.26 7.384 99.422 43.578 187.137 108.892 263.898 10.869 12.774 37.08 38.959 50.241 50.192 51.059 43.577 105.908 73.984 172.94 95.872 19.637 6.413 60.206 15.437 81 18.019 4.675.581 10.188 1.312 12.25 1.625l3.75.57V1020H465v84h310v-84H674v-67.824l3.75-.57c2.063-.313 7.575-1.059 12.25-1.658 50.438-6.46 109.71-25.026 156.61-49.055 92.301-47.29 165.357-119.976 209.824-208.76 24.291-48.502 38.986-98.322 45.288-153.537 1.812-15.878 2.525-69.315.999-74.846l-.759-2.75H991.293l-1.723-13.042c-14.439-109.261-79.707-204.766-179.042-261.988-42.951-24.742-93.142-41.081-146.028-47.536-15.392-1.879-60.229-2.703-75.5-1.387m2.155 76.454c-35.006 4.008-63.913 12.41-94.655 27.512-57.871 28.428-102.269 73.428-130.457 132.225-34.351 71.651-35.847 155.489-4.109 230.297 13.501 31.823 33.06 60.503 59.027 86.555 16.999 17.054 26.779 25.229 43.539 36.392 51.072 34.017 109.218 49.786 171.257 46.445 57.995-3.123 112.844-24.103 159.243-60.91 12.374-9.816 33.74-31.012 43.364-43.017 18.323-22.86 37.612-57.402 46.612-83.47 19.57-56.685 20.741-115.215 3.478-173.769-17.805-60.391-58.25-115.189-111.954-151.683-34.986-23.775-76.6-39.653-119.5-45.596-16.179-2.241-50.389-2.751-65.845-.981M790.5 346.66c-2.75.837-6.393 2.575-8.094 3.863-2.921 2.21-28.411 27.861-87.905 88.461l-52.523 53.5c-60.688 61.819-77.49 78.534-78.539 78.131-.608-.233-24.918-17.64-54.022-38.682-29.105-21.041-54.942-39.164-57.417-40.274-6.734-3.018-16.016-2.829-23 .469-17.02 8.038-22.831 27.552-12.84 43.121 2.526 3.937 8.288 8.589 31.219 25.206 15.467 11.207 45.221 32.779 66.121 47.936 20.9 15.157 39.575 28.339 41.5 29.292 5.266 2.608 16.772 2.948 23.228.688 6.206-2.173 7.758-3.68 85.861-83.371 28.3-28.875 75.639-77.108 105.199-107.185 56.741-57.735 57.695-58.853 59.288-69.474 2.031-13.541-7.477-27.561-21.518-31.731-6.572-1.952-10.011-1.941-16.558.05M180.441 515.237c5.142 90.17 39.51 174.26 100.378 245.6 28.84 33.8 70.818 68.579 110.681 91.7 52.872 30.665 111.041 49.851 176 58.049 20.037 2.529 71.292 3.057 93.5.964 127.77-12.045 241.016-74.054 316.041-173.05 49.188-64.905 77.477-141.773 82.527-224.25l.689-11.25h-33.521c-37.933 0-34.735-.813-34.737 8.832-.004 16.527-5.946 51.408-12.842 75.379-32.808 114.054-123.178 205.287-240.864 243.166-68.289 21.98-142.191 24.41-212.793 6.997-72.192-17.805-140.398-58.671-188.393-112.874-53.549-60.478-84.452-133.217-88.92-209.304L247.5 503.5l-33.879-.263-33.88-.264.7 12.264" fill="undefined" fill-rule="evenodd"/></svg>